<svg width="71" height="71" viewBox="0 0 71 71" fill="none" xmlns="http://www.w3.org/2000/svg">
<g clip-path="url(#clip0_779_3070)">
<path d="M49.7016 14.1992C47.8185 14.1992 46.0126 14.9473 44.6811 16.2788C43.3496 17.6103 42.6016 19.4162 42.6016 21.2992C42.6016 23.1823 43.3496 24.9882 44.6811 26.3197C46.0126 27.6512 47.8185 28.3992 49.7016 28.3992C51.5846 28.3992 53.3905 27.6512 54.722 26.3197C56.0535 24.9882 56.8016 23.1823 56.8016 21.2992C56.8016 19.4162 56.0535 17.6103 54.722 16.2788C53.3905 14.9473 51.5846 14.1992 49.7016 14.1992Z" fill="black" fill-opacity="0.1"/>
<path fill-rule="evenodd" clip-rule="evenodd" d="M0 7.1C0 5.21696 0.748033 3.41105 2.07954 2.07954C3.41105 0.748033 5.21696 0 7.1 0L63.9 0C65.783 0 67.589 0.748033 68.9205 2.07954C70.252 3.41105 71 5.21696 71 7.1V63.9C71 65.0725 70.7106 66.2268 70.1575 67.2607C69.5499 68.3914 68.6471 69.3362 67.5453 69.9947C66.4434 70.6532 65.1836 71.0006 63.9 71H7.1C5.21696 71 3.41105 70.252 2.07954 68.9205C0.748033 67.589 0 65.783 0 63.9L0 7.1ZM22.9567 14.8721L21.3 13.2155L4.73333 29.7821V7.1C4.73333 6.47232 4.98268 5.87035 5.42651 5.42651C5.87035 4.98268 6.47232 4.73333 7.1 4.73333H63.9C64.5277 4.73333 65.1296 4.98268 65.5735 5.42651C66.0173 5.87035 66.2667 6.47232 66.2667 7.1V47.3333H55.4131L22.9756 14.8911L22.9567 14.8721Z" fill="black" fill-opacity="0.1"/>
<line x1="35.7395" y1="15" x2="35.7395" y2="55.039" stroke="#C2C2C2" stroke-width="1.44"/>
<line x1="15" y1="34.2995" x2="55.039" y2="34.2995" stroke="#C2C2C2" stroke-width="1.44"/>
</g>
<defs>
<clipPath id="clip0_779_3070">
<rect width="71" height="71" fill="white"/>
</clipPath>
</defs>
</svg>
