<svg width="26" height="25" viewBox="0 0 26 25" fill="none" xmlns="http://www.w3.org/2000/svg">
<g clip-path="url(#clip0_6659_2027)">
<path d="M2.6875 7.60869H9.97432C9.68911 7.20596 9.4582 6.8002 9.28325 6.39199C8.61758 4.83877 9.7665 3.12432 11.4375 3.125C12.3465 3.12539 13.0099 3.65708 13.3906 4.54551C13.9825 5.92666 17.2309 7.68657 18.6413 8.32104C19.5132 8.70952 20.0306 9.56514 20.0312 10.4619L20.0312 10.462V18.8373C20.0312 19.414 19.6115 19.9064 19.0416 19.9946C16.7546 20.3486 16.0259 21.8737 13 21.8655C12.867 21.8651 12.3528 21.875 12.2188 21.875C9.74541 21.875 8.23564 20.7948 8.67383 18.3954C7.76577 17.9414 7.17295 16.4673 7.87061 15.3526C6.66724 14.3186 6.76519 12.721 7.56304 11.8886H2.6875C1.5083 11.8886 0.5 10.9022 0.5 9.74863C0.5 8.61177 1.54248 7.60869 2.6875 7.60869ZM21.9844 8.59375H24.3281C24.9753 8.59375 25.5 9.11841 25.5 9.76562V19.1406C25.5 19.7878 24.9753 20.3125 24.3281 20.3125H21.9844C21.3372 20.3125 20.8125 19.7878 20.8125 19.1406V9.76562C20.8125 9.11841 21.3372 8.59375 21.9844 8.59375ZM23.1562 18.9453C23.6956 18.9453 24.1328 18.5081 24.1328 17.9688C24.1328 17.4294 23.6956 16.9922 23.1562 16.9922C22.6169 16.9922 22.1797 17.4294 22.1797 17.9688C22.1797 18.5081 22.6169 18.9453 23.1562 18.9453Z" fill="black"/>
</g>
<defs>
<clipPath id="clip0_6659_2027">
<rect width="25" height="25" fill="white" transform="translate(0.5)"/>
</clipPath>
</defs>
</svg>
